<svg width="29" height="29" viewBox="0 0 29 29" fill="none" xmlns="http://www.w3.org/2000/svg">
<path d="M6.525 6.64584L6.04167 4.22917H3.625L6.525 6.64584ZM6.525 6.64584H25.375L20.5417 16.3125H8.45833M6.525 6.64584L8.45833 16.3125M8.45833 16.3125L5.68762 19.0832C4.92637 19.8445 5.46529 21.1458 6.54192 21.1458H20.5417M20.5417 21.1458C19.9007 21.1458 19.286 21.4005 18.8328 21.8537C18.3796 22.3069 18.125 22.9216 18.125 23.5625C18.125 24.2034 18.3796 24.8181 18.8328 25.2713C19.286 25.7246 19.9007 25.9792 20.5417 25.9792C21.1826 25.9792 21.7973 25.7246 22.2505 25.2713C22.7037 24.8181 22.9583 24.2034 22.9583 23.5625C22.9583 22.9216 22.7037 22.3069 22.2505 21.8537C21.7973 21.4005 21.1826 21.1458 20.5417 21.1458ZM10.875 23.5625C10.875 24.2034 10.6204 24.8181 10.1672 25.2713C9.71396 25.7246 9.09927 25.9792 8.45833 25.9792C7.81739 25.9792 7.2027 25.7246 6.74949 25.2713C6.29628 24.8181 6.04167 24.2034 6.04167 23.5625C6.04167 22.9216 6.29628 22.3069 6.74949 21.8537C7.2027 21.4005 7.81739 21.1458 8.45833 21.1458C9.09927 21.1458 9.71396 21.4005 10.1672 21.8537C10.6204 22.3069 10.875 22.9216 10.875 23.5625Z" stroke="white" stroke-width="2" stroke-linecap="round" stroke-linejoin="round"/>
</svg>
