<svg width="96" height="15" viewBox="0 0 96 15" fill="none" xmlns="http://www.w3.org/2000/svg">
<path d="M0.494 1.4H3.41V11.624H9.728V14H0.494V1.4ZM21.205 4.316V14H18.541V12.848C18.169 13.268 17.725 13.592 17.209 13.82C16.693 14.036 16.135 14.144 15.535 14.144C14.263 14.144 13.255 13.778 12.511 13.046C11.767 12.314 11.395 11.228 11.395 9.788V4.316H14.203V9.374C14.203 10.934 14.857 11.714 16.165 11.714C16.837 11.714 17.377 11.498 17.785 11.066C18.193 10.622 18.397 9.968 18.397 9.104V4.316H21.205ZM30.3224 14L28.1984 11.03L26.0024 14H22.9424L26.6684 9.122L23.0684 4.316H26.2184L28.2704 7.142L30.3764 4.316H33.3644L29.7644 9.05L33.5084 14H30.3224Z" fill="#FF7A00"/>
<path d="M41.5315 14.216C40.2235 14.216 39.0415 13.934 37.9855 13.37C36.9415 12.806 36.1195 12.032 35.5195 11.048C34.9315 10.052 34.6375 8.936 34.6375 7.7C34.6375 6.464 34.9315 5.354 35.5195 4.37C36.1195 3.374 36.9415 2.594 37.9855 2.03C39.0415 1.466 40.2235 1.184 41.5315 1.184C42.8395 1.184 44.0155 1.466 45.0595 2.03C46.1035 2.594 46.9255 3.374 47.5255 4.37C48.1255 5.354 48.4255 6.464 48.4255 7.7C48.4255 8.936 48.1255 10.052 47.5255 11.048C46.9255 12.032 46.1035 12.806 45.0595 13.37C44.0155 13.934 42.8395 14.216 41.5315 14.216ZM41.5315 11.732C42.2755 11.732 42.9475 11.564 43.5475 11.228C44.1475 10.88 44.6155 10.4 44.9515 9.788C45.2995 9.176 45.4735 8.48 45.4735 7.7C45.4735 6.92 45.2995 6.224 44.9515 5.612C44.6155 5 44.1475 4.526 43.5475 4.19C42.9475 3.842 42.2755 3.668 41.5315 3.668C40.7875 3.668 40.1155 3.842 39.5155 4.19C38.9155 4.526 38.4415 5 38.0935 5.612C37.7575 6.224 37.5895 6.92 37.5895 7.7C37.5895 8.48 37.7575 9.176 38.0935 9.788C38.4415 10.4 38.9155 10.88 39.5155 11.228C40.1155 11.564 40.7875 11.732 41.5315 11.732ZM60.535 4.316V14H57.871V12.848C57.499 13.268 57.055 13.592 56.539 13.82C56.023 14.036 55.465 14.144 54.865 14.144C53.593 14.144 52.585 13.778 51.841 13.046C51.097 12.314 50.725 11.228 50.725 9.788V4.316H53.533V9.374C53.533 10.934 54.187 11.714 55.495 11.714C56.167 11.714 56.707 11.498 57.115 11.066C57.523 10.622 57.727 9.968 57.727 9.104V4.316H60.535ZM69.7424 13.532C69.4664 13.736 69.1244 13.892 68.7164 14C68.3204 14.096 67.9004 14.144 67.4564 14.144C66.3044 14.144 65.4104 13.85 64.7744 13.262C64.1504 12.674 63.8384 11.81 63.8384 10.67V6.692H62.3444V4.532H63.8384V2.174H66.6464V4.532H69.0584V6.692H66.6464V10.634C66.6464 11.042 66.7484 11.36 66.9524 11.588C67.1684 11.804 67.4684 11.912 67.8524 11.912C68.2964 11.912 68.6744 11.792 68.9864 11.552L69.7424 13.532ZM71.6787 0.643999H74.4867V14H71.6787V0.643999ZM86.9387 9.194C86.9387 9.23 86.9207 9.482 86.8847 9.95H79.5587C79.6907 10.55 80.0027 11.024 80.4947 11.372C80.9867 11.72 81.5987 11.894 82.3307 11.894C82.8347 11.894 83.2787 11.822 83.6627 11.678C84.0587 11.522 84.4247 11.282 84.7607 10.958L86.2547 12.578C85.3427 13.622 84.0107 14.144 82.2587 14.144C81.1667 14.144 80.2007 13.934 79.3607 13.514C78.5207 13.082 77.8727 12.488 77.4167 11.732C76.9607 10.976 76.7327 10.118 76.7327 9.158C76.7327 8.21 76.9547 7.358 77.3987 6.602C77.8547 5.834 78.4727 5.24 79.2527 4.82C80.0447 4.388 80.9267 4.172 81.8987 4.172C82.8467 4.172 83.7047 4.376 84.4727 4.784C85.2407 5.192 85.8407 5.78 86.2727 6.548C86.7167 7.304 86.9387 8.186 86.9387 9.194ZM81.9167 6.296C81.2807 6.296 80.7467 6.476 80.3147 6.836C79.8827 7.196 79.6187 7.688 79.5227 8.312H84.2927C84.1967 7.7 83.9327 7.214 83.5007 6.854C83.0687 6.482 82.5407 6.296 81.9167 6.296ZM95.4142 13.532C95.1382 13.736 94.7962 13.892 94.3882 14C93.9922 14.096 93.5722 14.144 93.1282 14.144C91.9762 14.144 91.0822 13.85 90.4462 13.262C89.8222 12.674 89.5102 11.81 89.5102 10.67V6.692H88.0162V4.532H89.5102V2.174H92.3182V4.532H94.7302V6.692H92.3182V10.634C92.3182 11.042 92.4202 11.36 92.6242 11.588C92.8402 11.804 93.1402 11.912 93.5242 11.912C93.9682 11.912 94.3462 11.792 94.6582 11.552L95.4142 13.532Z" fill="white"/>
</svg>
